<svg xmlns="http://www.w3.org/2000/svg" viewBox="0 0 32 32"><path d="M20 9.42V9a4 4 0 0 0-3-3.86V4a1 1 0 0 0-2 0V5.14A4 4 0 0 0 12 9v.42A11 11 0 0 0 4 20a1 1 0 0 0 1 1h8.18a3 3 0 0 0 5.64 0H27a1 1 0 0 0 1-1A11 11 0 0 0 20 9.42zM6.06 19a9 9 0 0 1 7.14-7.82 1 1 0 0 0 .8-1V9a2 2 0 0 1 4 0v1.2a1 1 0 0 0 .8 1A9 9 0 0 1 25.94 19zM16 24a1 1 0 0 0-1 1v3a1 1 0 0 0 2 0V25A1 1 0 0 0 16 24zM21.65 23.73a1 1 0 1 0-1.42 1.42l2.12 2.12a1 1 0 0 0 1.42 0 1 1 0 0 0 0-1.42zM10.35 23.73L8.23 25.85a1 1 0 0 0 0 1.42 1 1 0 0 0 1.42 0l2.12-2.12a1 1 0 1 0-1.42-1.42z" data-name="ceiling lamps"/></svg>