<svg xmlns="http://www.w3.org/2000/svg" enable-background="new 0 0 400 400" viewBox="0 0 400 400"><path fill="#485eff" d="M299.9 319.5c0 0-43.7 45.4-146 7 0 0 43.8 60.8 114.7 69.9L299.9 319.5zM73.1 213c0 0-25.7 130.6-66.1 130.6h66.1V213z" enable-background="new" opacity=".3"/><path fill="#5c77ff" d="M190.4,125.1c1.8,2,3.7,3.8,5.7,5.4c5.4,7.7,14.7,22.4,15.3,33.6c0,0,1.2,9.8,13.4,9.8h10.1
			c12.2,0,13.4-9.8,13.4-9.8c0.6-11.8,11.1-27.8,16.2-35.1c10.7-9.6,17.4-23.5,17.4-39c0-29-23.5-52.4-52.4-52.4c-0.5,0-1.1,0-1.6,0
			c-10.1,0.3-19.5,3.5-27.4,8.7c-7.3,4.8-13.3,11.4-17.4,19.2c-3.9,7.3-6,15.6-6,24.5C177,103.5,182.1,115.8,190.4,125.1"/><path fill="#284172" d="M388.4,200.6c-0.5-0.7-1.1-1.5-1.3-1.8c-0.4-0.7-1.5-3.5-2.4-5.7c-4-10.1-8.1-19.6-13.2-24.2
				c-3.1-2.8-3.4-8.1-3.1-11.1c11.7-12.2,7.9-28.5,3.7-36.6c-0.7-38.5-9.9-56.2-16.5-64.1c4.2-2.7,8.3-6.8,7.7-12.6
				c-0.9-8.4-11.5-15.3-34.3-22.5c-13.6-4.3-26.8-7-29.6-7.6C267.5,0.7,236.6-0.5,216.1,1c-22.2,0.7-43.8,7.6-62.2,19.8
				c-18.8,11.3-32.1,26.1-39.8,44c-9,17-13.7,36.2-13.7,55.5c0,26.4,8.5,51.5,24.5,72.4c1.7,2.2,4.8,2.6,7,0.9
				c2.2-1.7,2.6-4.8,0.9-7c-14.7-19.2-22.4-42.1-22.4-66.3c0-17.8,4.4-35.4,12.6-51.1c0.1-0.1,0.1-0.3,0.2-0.4
				c6.8-16.1,18.8-29.4,35.9-39.6c0.1,0,0.1-0.1,0.2-0.1c17-11.3,36.8-17.6,57.2-18.2c0.1,0,0.1,0,0.2,0
				c19.4-1.4,48.9-0.4,79.1,12.9c0.3,0.1,0.7,0.3,1,0.3c0.1,0,14.7,2.9,29.2,7.5c26.3,8.3,27.2,13.9,27.2,13.9c0,0-0.4,2.4-8.4,5.8
				c-1.8,0.8-3,2.5-3,4.5c-0.1,1.9,1,3.7,2.8,4.6c0.2,0.1,16.9,9.9,17.5,62.1c0,0.9,0.2,1.7,0.7,2.5c0.1,0.2,9.1,15.9-2.6,26.7
				c-0.8,0.7-1.3,1.7-1.5,2.7c-0.1,0.6-2.5,14.1,6.1,21.8c3.8,3.4,8,14.1,10.5,20.4c1.6,4,2.4,6.1,3.3,7.4c0.4,0.6,0.9,1.3,1.7,2.3
				c5.8,7.8,7.1,11.2,7.2,12.6c-0.1,0-0.2,0-0.3,0.1c-12.9,2.3-20.4,9.4-20.7,9.7c-1.3,1.2-1.8,2.9-1.5,4.6c0,0.2,3.9,21.6-6,24.7
				c-2.3,0.7-3.7,2.9-3.5,5.3c0.3,2.7,0.1,10.8-4,12.9c-1.5,0.8-2.5,2.3-2.7,3.9l-1.1,10.5c-0.1,1.3,0.2,2.5,1,3.5
				c3.5,4.5,11.6,18.1,7.4,26.5c-3.1,6.2-13.2,9.5-29.1,9.6l-31-12.2c-2.5-1-5.4,0.2-6.4,2.7l-28.9,68
				c-16.4-3.3-81.8-19.8-103.8-74.3c-1-2.6-3.9-3.8-6.5-2.8c-2.6,1-3.8,3.9-2.8,6.5c11.3,28.1,34.9,51,68.2,66.3
				c24.9,11.5,46.3,14.7,47.2,14.8c0.2,0,0.5,0.1,0.7,0.1c2,0,3.8-1.2,4.6-3l28.5-67.2l27.3,10.8c0.6,0.2,1.2,0.3,1.8,0.4
				c0.2,0,0.5,0,0.7,0c20.5,0,33.4-5.1,38.3-15.1c6.6-13.3-3.6-30-7.3-35.3l0.6-6.3c5.8-4.7,6.9-12.7,7-17.5
				c10.3-6,11.2-21.1,9.8-31.5c2.5-1.7,7.2-4.4,13.7-5.6c5.2-0.9,7.1-4.1,7.8-5.8C399.5,216.5,393.9,208,388.4,200.6z"/><path fill="#284172" d="M150.3,305.3l115.6-43.6c2-0.8,3.9-1.8,5.7-3l69.4-47.6c3.5-2.4,5.4-6.3,5.2-10.6c-0.2-4.2-2.6-8-6.3-10
				c-13.8-7.6-27.7-4.6-36.2-1.4l5.1-10.5c1.3-2.6,1.3-5.5,0.1-8.1c-1.2-2.6-3.4-4.6-6.2-5.3c-3.4-1-6.7-1.4-10-1.4
				c-21.3,0-32,19.9-33.3,22.4l-24.5,41.6H220c-0.8,0-1.5,0.2-2.1,0.5c5.4-3.6,9.9-10.1,13-19.2c1.3-3.6,0.7-7.7-1.6-10.8
				c-2.2-3.1-5.9-5-9.7-5h-73.1c-8.3,0-16.1,3.2-22,9.1l-19.1,19.1c-1.8,1.8-4.1,3.1-6.5,3.7v-7c0-2.8-2.2-5-5-5H78.1V213
				c0-2.8-2.2-5-5-5H7c-2.8,0-5,2.2-5,5s2.2,5,5,5h61.1v0.2v110.8v9.6H7c-2.8,0-5,2.2-5,5c0,2.8,2.2,5,5,5h66.1c2.8,0,5-2.2,5-5
				v-9.6h15.8c2.8,0,5-2.2,5-5v-20h31.3C137.1,309,143.9,307.8,150.3,305.3z M268.3,191c0.1-0.1,0.1-0.2,0.2-0.4
				c0.1-0.2,8.5-16.9,24.4-16.9c2.2,0,4.5,0.3,6.8,0.9l-11,22.5L252,218.7L268.3,191z M88.9,324H78.1V223.2h10.8v7.5V304V324z
				 M98.9,235.4c5.1-0.8,9.9-3.2,13.6-6.9l19.1-19.1c4-4,9.3-6.2,14.9-6.2h73.1c0.9,0,1.3,0.5,1.5,0.8c0.2,0.3,0.5,0.9,0.2,1.8
				c-2,5.9-6.6,15.8-14.2,15.8h-53.1c-2.8,0-5,2.2-5,5c0,2.8,2.2,5,5,5h53.1c3.4,0,6.6-0.9,9.6-2.6c-1.1,0.9-1.8,2.3-1.8,3.9
				c0,2.8,2.2,5,5,5H238c0,0,0,0,0,0l0,0c0.2,0,0.4,0,0.7,0c0.1,0,0.1,0,0.2,0c0.2,0,0.3-0.1,0.5-0.1c0.1,0,0.2-0.1,0.3-0.1
				c0.1,0,0.3-0.1,0.4-0.1c0.2-0.1,0.4-0.2,0.6-0.3l33.4-19.6l21.1-12.4c0,0,0,0,0,0l5.8-3.4c0.1,0,0.1-0.1,0.2-0.1
				c0.2-0.1,17.7-11.2,34.1-2.2c0.9,0.5,1.1,1.3,1.1,1.7c0,0.4-0.1,1.2-0.9,1.8l-69.4,47.6c-1.1,0.8-2.3,1.4-3.6,1.9L146.8,296
				c-5.3,2-10.9,3-16.6,3H98.9V235.4z"/><path fill="#284172" d="M62.2 319.1c0-8.2-6.6-14.8-14.8-14.8s-14.8 6.6-14.8 14.8c0 8.2 6.6 14.8 14.8 14.8S62.2 327.3 62.2 319.1zM42.6 319.1c0-2.7 2.2-4.8 4.8-4.8 2.7 0 4.8 2.2 4.8 4.8s-2.2 4.8-4.8 4.8C44.7 324 42.6 321.8 42.6 319.1zM258.3 90.7c-.9-1.4-2.5-2.2-4.2-2.2-.4 0-.7 0-1 0-3.6 0-4.6-.5-4.6-.6-.3-.2-1.4-.9-3.5-3.5-.9-1.2-2.4-1.9-3.9-1.9-1.5 0-2.9.6-3.9 1.8-2 2.4-3.1 3.1-3.4 3.2 0 0-1.1.5-4.5.5-3.5 0-4.6-.5-4.6-.5-.3-.2-1.4-.9-3.4-3.4-.9-1.2-2.4-1.9-3.9-1.9 0 0 0 0 0 0-1.5 0-2.9.7-3.9 1.8-2.1 2.5-3.2 3.2-3.4 3.4 0 0-1 .5-4.6.5-.3 0-.6 0-1 0-1.7 0-3.2.8-4.2 2.2-.9 1.4-1.1 3.1-.5 4.7 4.5 10.9 8.3 20.9 11.3 29.6 3.1 9.3 5.3 18.7 5.8 34.6.1 2.7 2.3 4.9 5 4.9h16.1c2.7 0 4.9-2.1 5-4.9.5-17 1.7-26.3 4.5-34.4 2.9-8.7 6.7-18.6 11.2-29.4C259.4 93.9 259.3 92.1 258.3 90.7zM238.1 121.6c-2.8 8.3-4.2 17.3-4.8 32.4h-6.5c-.8-14.3-3-23.5-6.1-32.6-2.5-7.2-5.4-15.2-8.9-23.9 1.2-.3 2.2-.7 3.1-1.1.8-.5 1.7-1 2.6-1.8.9.8 1.7 1.3 2.6 1.8 2.2 1.2 5.2 1.7 9.3 1.7 4 0 6.9-.5 9.1-1.6.8-.4 1.6-1 2.5-1.7.9.8 1.8 1.4 2.7 1.9.9.5 2 .9 3.3 1.2C243.5 106.6 240.5 114.5 238.1 121.6zM242.7 180.9h-25.1c-2.8 0-5 2.2-5 5s2.2 5 5 5h25.1c2.8 0 5-2.2 5-5S245.5 180.9 242.7 180.9z"/><path fill="#5c77ff" d="M271.3,150c-1.2,0-2.5-0.6-3.2-1.7c-1.2-1.8-0.8-4.2,1-5.4c2-1.4,3.9-2.9,5.7-4.4c1.6-1.4,4.1-1.2,5.5,0.4
					c1.4,1.6,1.2,4.1-0.4,5.5c-2,1.8-4.2,3.4-6.4,5C272.8,149.8,272.1,150,271.3,150z M187.4,149.9c-0.8,0-1.6-0.2-2.2-0.7
					c-2.2-1.5-4.4-3.2-6.4-5c-1.6-1.4-1.8-3.9-0.4-5.5c1.4-1.6,3.9-1.8,5.5-0.4c1.8,1.6,3.7,3.1,5.7,4.5c1.8,1.2,2.2,3.7,1,5.4
					C189.8,149.3,188.6,149.9,187.4,149.9z M287.8,134.1c-0.8,0-1.6-0.3-2.3-0.8c-1.7-1.3-2.1-3.7-0.8-5.5c1.4-1.9,2.8-4,4-6
					c1.1-1.9,3.5-2.5,5.3-1.4s2.5,3.5,1.4,5.3c-1.4,2.3-2.9,4.6-4.5,6.8C290.2,133.6,289,134.1,287.8,134.1z M170.9,133.9
					c-1.2,0-2.4-0.5-3.1-1.6c-1.6-2.2-3.1-4.5-4.4-6.8c-1.1-1.9-0.4-4.3,1.4-5.3c1.9-1.1,4.3-0.4,5.3,1.4c1.2,2.1,2.5,4.1,4,6.1
					c1.3,1.7,0.9,4.2-0.8,5.5C172.6,133.6,171.7,133.9,170.9,133.9z M298.2,113.7c-0.4,0-0.8-0.1-1.2-0.2c-2.1-0.6-3.2-2.8-2.6-4.9
					c0.7-2.3,1.3-4.7,1.7-7c0.4-2.1,2.4-3.5,4.6-3.1c2.1,0.4,3.5,2.4,3.1,4.6c-0.5,2.6-1.2,5.3-2,7.9
					C301.4,112.6,299.9,113.7,298.2,113.7z M160.6,113.4c-1.7,0-3.2-1.1-3.7-2.8c-0.8-2.6-1.4-5.2-1.9-7.9c-0.4-2.1,1-4.2,3.1-4.5
					c2.1-0.4,4.2,1,4.5,3.1c0.4,2.4,1,4.7,1.7,7c0.6,2.1-0.5,4.2-2.6,4.9C161.4,113.4,161,113.4,160.6,113.4z M301.1,91
					c-2.1,0-3.8-1.6-3.9-3.7c-0.1-2.4-0.4-4.8-0.7-7.2c-0.3-2.1,1.1-4.1,3.2-4.5c2.1-0.3,4.1,1.1,4.5,3.2c0.4,2.7,0.7,5.4,0.8,8.1
					c0.1,2.2-1.6,4-3.7,4.1C301.3,91,301.2,91,301.1,91z M157.8,90.7c-0.1,0-0.1,0-0.2,0c-2.2-0.1-3.8-1.9-3.7-4.1
					c0.1-2.7,0.4-5.4,0.9-8.1c0.4-2.1,2.4-3.6,4.5-3.2c2.1,0.4,3.6,2.4,3.2,4.5c-0.4,2.4-0.6,4.8-0.8,7.2
					C161.6,89,159.9,90.7,157.8,90.7z M296.2,68.6c-1.5,0-3-0.9-3.6-2.4c-0.9-2.2-2-4.4-3.1-6.5c-1-1.9-0.4-4.3,1.5-5.3
					c1.9-1,4.3-0.4,5.3,1.5c1.3,2.4,2.5,4.8,3.5,7.3c0.8,2-0.1,4.3-2.1,5.1C297.2,68.5,296.7,68.6,296.2,68.6z M162.8,68.3
					c-0.5,0-1-0.1-1.5-0.3c-2-0.8-2.9-3.1-2.1-5.1c1-2.5,2.2-4.9,3.5-7.3c1.1-1.9,3.4-2.6,5.3-1.5c1.9,1,2.6,3.4,1.5,5.3
					c-1.2,2.1-2.2,4.3-3.1,6.5C165.8,67.4,164.3,68.3,162.8,68.3z M284.1,49.2c-1.1,0-2.2-0.4-2.9-1.3c-1.6-1.8-3.3-3.5-5.1-5.2
					c-1.6-1.4-1.7-3.9-0.3-5.5c1.4-1.6,3.9-1.7,5.5-0.3c2,1.8,3.9,3.7,5.7,5.8c1.4,1.6,1.3,4.1-0.3,5.5
					C285.9,48.8,285,49.2,284.1,49.2z M175,48.9c-0.9,0-1.9-0.3-2.6-1c-1.6-1.4-1.7-3.9-0.3-5.5c1.8-2,3.7-3.9,5.7-5.7
					c1.6-1.4,4.1-1.3,5.5,0.3c1.4,1.6,1.3,4.1-0.3,5.5c-1.8,1.6-3.5,3.3-5.1,5.1C177.2,48.5,176.1,48.9,175,48.9z M266.3,34.7
					c-0.7,0-1.3-0.2-1.9-0.5c-2.1-1.2-4.3-2.3-6.5-3.3c-2-0.9-2.9-3.2-2-5.2c0.9-2,3.2-2.9,5.2-2c2.5,1.1,4.9,2.3,7.2,3.7
					c1.9,1.1,2.5,3.5,1.4,5.3C268.9,34,267.6,34.7,266.3,34.7z M192.9,34.5c-1.4,0-2.7-0.7-3.4-2c-1.1-1.9-0.4-4.3,1.5-5.3
					c2.3-1.3,4.8-2.6,7.2-3.6c2-0.9,4.3,0,5.1,2s0,4.3-2,5.1c-2.2,1-4.4,2.1-6.5,3.3C194.2,34.4,193.5,34.5,192.9,34.5z M244.9,26.5
					c-0.3,0-0.5,0-0.8-0.1c-2.4-0.5-4.8-0.9-7.2-1.1c-2.1-0.2-3.7-2.1-3.5-4.3c0.2-2.1,2.1-3.7,4.3-3.5c2.7,0.3,5.4,0.7,8,1.3
					c2.1,0.4,3.5,2.5,3,4.6C248.3,25.2,246.7,26.5,244.9,26.5z M214.4,26.4c-1.8,0-3.4-1.3-3.8-3.1c-0.4-2.1,0.9-4.2,3-4.6
					c2.6-0.5,5.3-1,8-1.2c2.2-0.2,4.1,1.4,4.3,3.5c0.2,2.1-1.4,4.1-3.5,4.3c-2.4,0.2-4.8,0.6-7.2,1.1
					C214.9,26.4,214.6,26.4,214.4,26.4z"/></svg>