<svg width="130" height="100" viewBox="0 0 130 100" fill="none" xmlns="http://www.w3.org/2000/svg">
<rect x="1" y="1" width="128" height="98" rx="19" fill="#F7FFF7" stroke="#1A535C" stroke-width="2"/>
<g clip-path="url(#clip0_4_11)">
<path d="M61.5409 33.3047C61.9218 33.6776 62.539 33.6776 62.9199 33.3047L63.6091 32.6298C63.99 32.2569 63.99 31.6525 63.6091 31.2795L61.4324 29.1487L63.6085 27.0174C63.9894 26.6444 63.9894 26.04 63.6085 25.6671L62.9193 24.9922C62.5384 24.6193 61.9211 24.6193 61.5403 24.9922L57.9852 28.4733C57.6043 28.8462 57.6043 29.4507 57.9852 29.8236L61.5409 33.3047ZM67.3915 32.6304L68.0807 33.3053C68.4616 33.6782 69.0789 33.6782 69.4597 33.3053L73.0148 29.8242C73.3957 29.4513 73.3957 28.8468 73.0148 28.4739L69.4597 24.9928C69.0789 24.6199 68.4616 24.6199 68.0807 24.9928L67.3915 25.6677C67.0106 26.0406 67.0106 26.645 67.3915 27.018L69.5676 29.1487L67.3915 31.2801C67.0106 31.653 67.0106 32.2575 67.3915 32.6304ZM84.025 42.5146H69.2501C69.205 43.6966 68.3537 44.424 67.255 44.424H63.55C62.4111 44.424 61.5378 43.3816 61.5531 42.5146H46.975C46.4387 42.5146 46 42.9442 46 43.4693V44.424C46 46.5243 47.755 48.2428 49.9 48.2428H81.1C83.245 48.2428 85 46.5243 85 44.424V43.4693C85 42.9442 84.5612 42.5146 84.025 42.5146ZM81.1 20.5564C81.1 18.9812 79.7837 17.6923 78.175 17.6923H52.825C51.2162 17.6923 49.9 18.9812 49.9 20.5564V40.6052H81.1V20.5564ZM77.2 36.7864H53.8V21.5111H77.2V36.7864Z" fill="#FF6B6B"/>
<path d="M61.5409 33.3047C61.9218 33.6776 62.539 33.6776 62.9199 33.3047L63.6091 32.6298C63.99 32.2569 63.99 31.6525 63.6091 31.2795L61.4324 29.1487L63.6085 27.0174C63.9894 26.6444 63.9894 26.04 63.6085 25.6671L62.9193 24.9922C62.5384 24.6193 61.9211 24.6193 61.5403 24.9922L57.9852 28.4733C57.6043 28.8462 57.6043 29.4507 57.9852 29.8236L61.5409 33.3047ZM67.3915 32.6304L68.0807 33.3053C68.4616 33.6782 69.0789 33.6782 69.4597 33.3053L73.0148 29.8242C73.3957 29.4513 73.3957 28.8468 73.0148 28.4739L69.4597 24.9928C69.0789 24.6199 68.4616 24.6199 68.0807 24.9928L67.3915 25.6677C67.0106 26.0406 67.0106 26.645 67.3915 27.018L69.5676 29.1487L67.3915 31.2801C67.0106 31.653 67.0106 32.2575 67.3915 32.6304ZM84.025 42.5146H69.2501C69.205 43.6966 68.3537 44.424 67.255 44.424H63.55C62.4111 44.424 61.5378 43.3816 61.5531 42.5146H46.975C46.4387 42.5146 46 42.9442 46 43.4693V44.424C46 46.5243 47.755 48.2428 49.9 48.2428H81.1C83.245 48.2428 85 46.5243 85 44.424V43.4693C85 42.9442 84.5612 42.5146 84.025 42.5146ZM81.1 20.5564C81.1 18.9812 79.7837 17.6923 78.175 17.6923H52.825C51.2162 17.6923 49.9 18.9812 49.9 20.5564V40.6052H81.1V20.5564ZM77.2 36.7864H53.8V21.5111H77.2V36.7864Z" stroke="black"/>
</g>
<path d="M14.1631 83.7325V79.3525H14.7511V83.7325H14.1631ZM14.6311 81.7825V81.2545L16.5091 81.2485V81.7765L14.6311 81.7825ZM14.6311 79.8805V79.3525H16.6111V79.8805H14.6311ZM19.3206 83.7325V79.3285H19.9086V83.7325H19.3206ZM22.0266 83.7325L20.5746 81.7825H21.2646L22.7406 83.7325H22.0266ZM19.6866 82.1485V81.6265H20.8626C21.0466 81.6265 21.2046 81.5885 21.3366 81.5125C21.4686 81.4365 21.5706 81.3325 21.6426 81.2005C21.7146 81.0645 21.7506 80.9105 21.7506 80.7385C21.7506 80.5665 21.7146 80.4145 21.6426 80.2825C21.5706 80.1465 21.4686 80.0405 21.3366 79.9645C21.2046 79.8845 21.0466 79.8445 20.8626 79.8445H19.6866V79.3285H20.7546C21.0746 79.3285 21.3546 79.3765 21.5946 79.4725C21.8346 79.5685 22.0206 79.7165 22.1526 79.9165C22.2846 80.1165 22.3506 80.3745 22.3506 80.6905V80.7865C22.3506 81.1025 22.2826 81.3605 22.1466 81.5605C22.0146 81.7605 21.8286 81.9085 21.5886 82.0045C21.3526 82.1005 21.0746 82.1485 20.7546 82.1485H19.6866ZM27.2134 83.8405C26.8214 83.8405 26.4834 83.7705 26.1994 83.6305C25.9154 83.4905 25.6814 83.3065 25.4974 83.0785C25.3134 82.8505 25.1754 82.6065 25.0834 82.3465C24.9954 82.0865 24.9514 81.8365 24.9514 81.5965V81.4645C24.9514 81.2045 24.9974 80.9425 25.0894 80.6785C25.1814 80.4145 25.3214 80.1745 25.5094 79.9585C25.6974 79.7385 25.9314 79.5625 26.2114 79.4305C26.4954 79.2985 26.8294 79.2325 27.2134 79.2325C27.5974 79.2325 27.9294 79.2985 28.2094 79.4305C28.4934 79.5625 28.7294 79.7385 28.9174 79.9585C29.1054 80.1745 29.2454 80.4145 29.3374 80.6785C29.4294 80.9425 29.4754 81.2045 29.4754 81.4645V81.5965C29.4754 81.8365 29.4294 82.0865 29.3374 82.3465C29.2494 82.6065 29.1134 82.8505 28.9294 83.0785C28.7454 83.3065 28.5114 83.4905 28.2274 83.6305C27.9434 83.7705 27.6054 83.8405 27.2134 83.8405ZM27.2134 83.3005C27.4694 83.3005 27.6994 83.2525 27.9034 83.1565C28.1114 83.0605 28.2874 82.9305 28.4314 82.7665C28.5754 82.5985 28.6854 82.4105 28.7614 82.2025C28.8374 81.9905 28.8754 81.7685 28.8754 81.5365C28.8754 81.2925 28.8374 81.0645 28.7614 80.8525C28.6854 80.6405 28.5754 80.4545 28.4314 80.2945C28.2874 80.1305 28.1114 80.0025 27.9034 79.9105C27.6994 79.8185 27.4694 79.7725 27.2134 79.7725C26.9574 79.7725 26.7254 79.8185 26.5174 79.9105C26.3134 80.0025 26.1394 80.1305 25.9954 80.2945C25.8514 80.4545 25.7414 80.6405 25.6654 80.8525C25.5894 81.0645 25.5514 81.2925 25.5514 81.5365C25.5514 81.7685 25.5894 81.9905 25.6654 82.2025C25.7414 82.4105 25.8514 82.5985 25.9954 82.7665C26.1394 82.9305 26.3134 83.0605 26.5174 83.1565C26.7254 83.2525 26.9574 83.3005 27.2134 83.3005ZM32.2428 83.7325V79.3525H33.2028L35.4288 83.2045H35.6208L35.5008 83.3125V79.3525H36.0648V83.7325H35.0928L32.8668 79.8805H32.6748L32.7948 79.7725V83.7325H32.2428ZM39.9866 83.7325V79.7605H40.5746V83.7325H39.9866ZM38.6546 79.8805V79.3525H41.9066V79.8805H38.6546ZM44.4971 83.7325V79.3525H45.0851V83.7325H44.4971ZM44.9651 83.7325V83.2045H47.0891V83.7325H44.9651ZM44.9651 81.7705V81.2425H46.9031V81.7705H44.9651ZM44.9651 79.8805V79.3525H47.0291V79.8805H44.9651ZM49.8948 83.7325V79.3525H50.8548L53.0808 83.2045H53.2728L53.1528 83.3125V79.3525H53.7168V83.7325H52.7448L50.5188 79.8805H50.3268L50.4468 79.7725V83.7325H49.8948ZM57.2546 83.7565V83.2165H58.3466C58.6106 83.2165 58.8446 83.1745 59.0486 83.0905C59.2566 83.0025 59.4326 82.8825 59.5766 82.7305C59.7246 82.5785 59.8366 82.4005 59.9126 82.1965C59.9886 81.9925 60.0266 81.7725 60.0266 81.5365C60.0266 81.2885 59.9886 81.0645 59.9126 80.8645C59.8366 80.6605 59.7246 80.4845 59.5766 80.3365C59.4326 80.1845 59.2566 80.0685 59.0486 79.9885C58.8446 79.9085 58.6106 79.8685 58.3466 79.8685H57.2546V79.3285H58.2866C58.6826 79.3285 59.0266 79.3905 59.3186 79.5145C59.6106 79.6345 59.8526 79.7985 60.0446 80.0065C60.2406 80.2105 60.3866 80.4405 60.4826 80.6965C60.5786 80.9485 60.6266 81.2065 60.6266 81.4705V81.6025C60.6266 81.8585 60.5786 82.1145 60.4826 82.3705C60.3866 82.6265 60.2406 82.8585 60.0446 83.0665C59.8526 83.2745 59.6106 83.4425 59.3186 83.5705C59.0266 83.6945 58.6826 83.7565 58.2866 83.7565H57.2546ZM56.7866 83.7565V79.3285H57.3746V83.7565H56.7866ZM66.9659 83.7565V83.2165H68.0579C68.3219 83.2165 68.5559 83.1745 68.7599 83.0905C68.9679 83.0025 69.1439 82.8825 69.2879 82.7305C69.4359 82.5785 69.5479 82.4005 69.6239 82.1965C69.6999 81.9925 69.7379 81.7725 69.7379 81.5365C69.7379 81.2885 69.6999 81.0645 69.6239 80.8645C69.5479 80.6605 69.4359 80.4845 69.2879 80.3365C69.1439 80.1845 68.9679 80.0685 68.7599 79.9885C68.5559 79.9085 68.3219 79.8685 68.0579 79.8685H66.9659V79.3285H67.9979C68.3939 79.3285 68.7379 79.3905 69.0299 79.5145C69.3219 79.6345 69.5639 79.7985 69.7559 80.0065C69.9519 80.2105 70.0979 80.4405 70.1939 80.6965C70.2899 80.9485 70.3379 81.2065 70.3379 81.4705V81.6025C70.3379 81.8585 70.2899 82.1145 70.1939 82.3705C70.0979 82.6265 69.9519 82.8585 69.7559 83.0665C69.5639 83.2745 69.3219 83.4425 69.0299 83.5705C68.7379 83.6945 68.3939 83.7565 67.9979 83.7565H66.9659ZM66.4979 83.7565V79.3285H67.0859V83.7565H66.4979ZM73.044 83.7325V79.3525H73.632V83.7325H73.044ZM73.512 83.7325V83.2045H75.636V83.7325H73.512ZM73.512 81.7705V81.2425H75.45V81.7705H73.512ZM73.512 79.8805V79.3525H75.576V79.8805H73.512ZM79.4557 83.7325L77.9377 79.3525H78.5437L79.9057 83.3485L79.6177 83.2045H80.3377L80.0317 83.3485L81.2857 79.3525H81.8737L80.4637 83.7325H79.4557ZM84.4897 83.7325V79.3525H85.0777V83.7325H84.4897ZM84.9577 83.7325V83.2045H87.0817V83.7325H84.9577ZM84.9577 81.7705V81.2425H86.8957V81.7705H84.9577ZM84.9577 79.8805V79.3525H87.0217V79.8805H84.9577ZM89.8874 83.7325V79.3525H90.4754V83.7325H89.8874ZM90.3554 83.7325V83.2045H92.3594V83.7325H90.3554ZM96.8427 83.8405C96.4507 83.8405 96.1127 83.7705 95.8287 83.6305C95.5447 83.4905 95.3107 83.3065 95.1267 83.0785C94.9427 82.8505 94.8047 82.6065 94.7127 82.3465C94.6247 82.0865 94.5807 81.8365 94.5807 81.5965V81.4645C94.5807 81.2045 94.6267 80.9425 94.7187 80.6785C94.8107 80.4145 94.9507 80.1745 95.1387 79.9585C95.3267 79.7385 95.5607 79.5625 95.8407 79.4305C96.1247 79.2985 96.4587 79.2325 96.8427 79.2325C97.2267 79.2325 97.5587 79.2985 97.8387 79.4305C98.1227 79.5625 98.3587 79.7385 98.5467 79.9585C98.7347 80.1745 98.8747 80.4145 98.9667 80.6785C99.0587 80.9425 99.1047 81.2045 99.1047 81.4645V81.5965C99.1047 81.8365 99.0587 82.0865 98.9667 82.3465C98.8787 82.6065 98.7427 82.8505 98.5587 83.0785C98.3747 83.3065 98.1407 83.4905 97.8567 83.6305C97.5727 83.7705 97.2347 83.8405 96.8427 83.8405ZM96.8427 83.3005C97.0987 83.3005 97.3287 83.2525 97.5327 83.1565C97.7407 83.0605 97.9167 82.9305 98.0607 82.7665C98.2047 82.5985 98.3147 82.4105 98.3907 82.2025C98.4667 81.9905 98.5047 81.7685 98.5047 81.5365C98.5047 81.2925 98.4667 81.0645 98.3907 80.8525C98.3147 80.6405 98.2047 80.4545 98.0607 80.2945C97.9167 80.1305 97.7407 80.0025 97.5327 79.9105C97.3287 79.8185 97.0987 79.7725 96.8427 79.7725C96.5867 79.7725 96.3547 79.8185 96.1467 79.9105C95.9427 80.0025 95.7687 80.1305 95.6247 80.2945C95.4807 80.4545 95.3707 80.6405 95.2947 80.8525C95.2187 81.0645 95.1807 81.2925 95.1807 81.5365C95.1807 81.7685 95.2187 81.9905 95.2947 82.2025C95.3707 82.4105 95.4807 82.5985 95.6247 82.7665C95.7687 82.9305 95.9427 83.0605 96.1467 83.1565C96.3547 83.2525 96.5867 83.3005 96.8427 83.3005ZM102.34 82.2085V81.6925H103.318C103.526 81.6925 103.698 81.6525 103.834 81.5725C103.97 81.4885 104.072 81.3765 104.14 81.2365C104.212 81.0965 104.248 80.9405 104.248 80.7685C104.248 80.5925 104.212 80.4345 104.14 80.2945C104.072 80.1545 103.97 80.0445 103.834 79.9645C103.698 79.8845 103.526 79.8445 103.318 79.8445H102.34V79.3285H103.21C103.57 79.3285 103.87 79.3865 104.11 79.5025C104.354 79.6145 104.538 79.7745 104.662 79.9825C104.786 80.1905 104.848 80.4365 104.848 80.7205V80.8165C104.848 81.0965 104.786 81.3425 104.662 81.5545C104.538 81.7625 104.354 81.9245 104.11 82.0405C103.87 82.1525 103.57 82.2085 103.21 82.2085H102.34ZM101.872 83.7325V79.3285H102.46V83.7325H101.872ZM107.51 83.7325V79.3525H108.098V83.7325H107.51ZM107.978 83.7325V83.2045H110.102V83.7325H107.978ZM107.978 81.7705V81.2425H109.916V81.7705H107.978ZM107.978 79.8805V79.3525H110.042V79.8805H107.978ZM112.908 83.7325V79.3285H113.496V83.7325H112.908ZM115.614 83.7325L114.162 81.7825H114.852L116.328 83.7325H115.614ZM113.274 82.1485V81.6265H114.45C114.634 81.6265 114.792 81.5885 114.924 81.5125C115.056 81.4365 115.158 81.3325 115.23 81.2005C115.302 81.0645 115.338 80.9105 115.338 80.7385C115.338 80.5665 115.302 80.4145 115.23 80.2825C115.158 80.1465 115.056 80.0405 114.924 79.9645C114.792 79.8845 114.634 79.8445 114.45 79.8445H113.274V79.3285H114.342C114.662 79.3285 114.942 79.3765 115.182 79.4725C115.422 79.5685 115.608 79.7165 115.74 79.9165C115.872 80.1165 115.938 80.3745 115.938 80.6905V80.7865C115.938 81.1025 115.87 81.3605 115.734 81.5605C115.602 81.7605 115.416 81.9085 115.176 82.0045C114.94 82.1005 114.662 82.1485 114.342 82.1485H113.274Z" fill="#FF6B6B"/>
<path d="M26.8341 70.2C26.1541 70.2 25.5808 70.0933 25.1141 69.88C24.6541 69.6667 24.3041 69.3767 24.0641 69.01C23.8308 68.6367 23.7141 68.21 23.7141 67.73H25.5141C25.5141 67.9033 25.5608 68.0633 25.6541 68.21C25.7541 68.35 25.9008 68.46 26.0941 68.54C26.2875 68.62 26.5341 68.66 26.8341 68.66C27.0941 68.66 27.3141 68.6267 27.4941 68.56C27.6808 68.4933 27.8208 68.4 27.9141 68.28C28.0141 68.16 28.0641 68.0167 28.0641 67.85C28.0641 67.6367 27.9741 67.4733 27.7941 67.36C27.6141 67.24 27.3108 67.1633 26.8841 67.13L26.4141 67.09C25.6608 67.0233 25.0608 66.7867 24.6141 66.38C24.1675 65.9733 23.9441 65.4333 23.9441 64.76C23.9441 64.28 24.0541 63.87 24.2741 63.53C24.5008 63.19 24.8175 62.93 25.2241 62.75C25.6308 62.57 26.1108 62.48 26.6641 62.48C27.2641 62.48 27.7708 62.58 28.1841 62.78C28.6041 62.98 28.9241 63.2633 29.1441 63.63C29.3641 63.99 29.4741 64.41 29.4741 64.89H27.6741C27.6741 64.73 27.6341 64.5833 27.5541 64.45C27.4741 64.3167 27.3575 64.2133 27.2041 64.14C27.0575 64.06 26.8775 64.02 26.6641 64.02C26.4641 64.02 26.2941 64.0533 26.1541 64.12C26.0208 64.18 25.9175 64.2667 25.8441 64.38C25.7775 64.4933 25.7441 64.62 25.7441 64.76C25.7441 64.9467 25.8075 65.1067 25.9341 65.24C26.0608 65.3733 26.2808 65.4533 26.5941 65.48L27.0641 65.52C27.6108 65.5667 28.0941 65.6867 28.5141 65.88C28.9341 66.0667 29.2641 66.3233 29.5041 66.65C29.7441 66.9767 29.8641 67.3767 29.8641 67.85C29.8641 68.3233 29.7408 68.7367 29.4941 69.09C29.2541 69.4433 28.9075 69.7167 28.4541 69.91C28.0075 70.1033 27.4675 70.2 26.8341 70.2ZM37.4659 70V62.7H39.3259V70H37.4659ZM32.8259 70V62.7H34.6859V70H32.8259ZM34.3659 67.13V65.51H37.7859V67.13H34.3659ZM42.8045 70V62.64H44.6645V70H42.8045ZM47.2045 70L45.1545 66.9H47.1745L49.3445 70H47.2045ZM44.1945 67.76V66.33H45.9445C46.1645 66.33 46.3545 66.2867 46.5145 66.2C46.6745 66.1133 46.7978 65.99 46.8845 65.83C46.9778 65.67 47.0245 65.4833 47.0245 65.27C47.0245 65.05 46.9778 64.86 46.8845 64.7C46.7978 64.54 46.6745 64.4167 46.5145 64.33C46.3545 64.2433 46.1645 64.2 45.9445 64.2H44.1945V62.64H45.8345C46.4678 62.64 47.0145 62.7367 47.4745 62.93C47.9345 63.1167 48.2878 63.3967 48.5345 63.77C48.7811 64.1367 48.9045 64.5933 48.9045 65.14V65.3C48.9045 65.8467 48.7778 66.3033 48.5245 66.67C48.2778 67.03 47.9245 67.3033 47.4645 67.49C47.0111 67.67 46.4678 67.76 45.8345 67.76H44.1945ZM52.2068 70V62.7H54.0068V70H52.2068ZM53.8068 70V68.48H56.8868V70H53.8068ZM53.8068 67.05V65.53H56.6768V67.05H53.8068ZM53.8068 64.22V62.7H56.8268V64.22H53.8068ZM60.1248 70V62.7H61.9248V70H60.1248ZM61.7248 70V68.48H64.8048V70H61.7248ZM61.7248 67.05V65.53H64.5948V67.05H61.7248ZM61.7248 64.22V62.7H64.7448V64.22H61.7248ZM68.0427 70V62.64H69.9027V70H68.0427ZM72.4427 70L70.3927 66.9H72.4127L74.5827 70H72.4427ZM69.4327 67.76V66.33H71.1827C71.4027 66.33 71.5927 66.2867 71.7527 66.2C71.9127 66.1133 72.0361 65.99 72.1227 65.83C72.2161 65.67 72.2627 65.4833 72.2627 65.27C72.2627 65.05 72.2161 64.86 72.1227 64.7C72.0361 64.54 71.9127 64.4167 71.7527 64.33C71.5927 64.2433 71.4027 64.2 71.1827 64.2H69.4327V62.64H71.0727C71.7061 62.64 72.2527 62.7367 72.7127 62.93C73.1727 63.1167 73.5261 63.3967 73.7727 63.77C74.0194 64.1367 74.1427 64.5933 74.1427 65.14V65.3C74.1427 65.8467 74.0161 66.3033 73.7627 66.67C73.5161 67.03 73.1627 67.3033 72.7027 67.49C72.2494 67.67 71.7061 67.76 71.0727 67.76H69.4327ZM76.7851 70L79.1251 62.7H82.1051L84.5251 70H82.6051L80.7251 64L81.2551 64.2H79.9351L80.4751 64L78.6451 70H76.7851ZM78.6951 68.31L79.2551 66.79H82.0251L82.5851 68.31H78.6951ZM86.8027 70L89.1427 62.7H92.1227L94.5427 70H92.6227L90.7427 64L91.2727 64.2H89.9527L90.4927 64L88.6627 70H86.8027ZM88.7127 68.31L89.2727 66.79H92.0427L92.6027 68.31H88.7127ZM97.363 70V62.7H99.943L101.443 66.55H101.643L103.133 62.7H105.763V70H103.923V63.77L104.213 63.79L102.333 68.53H100.643L98.753 63.79L99.063 63.77V70H97.363Z" fill="#FF6B6B"/>
<defs>
<clipPath id="clip0_4_11">
<rect x="46" y="17.6923" width="39" height="30.5505" fill="white"/>
</clipPath>
</defs>
</svg>
