<svg width="440" height="55" viewBox="0 0 440 55" fill="none" xmlns="http://www.w3.org/2000/svg">
<rect width="440" height="55" fill="#F7FFF7"/>
<path d="M104.124 41.45C102.231 41.45 100.458 41.0233 98.8042 40.17C98.0576 39.7967 97.4309 39.3567 96.9242 38.85C96.5509 39.4633 96.0842 40.01 95.5242 40.49C95.0442 40.8367 94.7776 41.0233 94.7242 41.05H93.7242V33.45H95.3242C95.7242 34.7567 96.2842 35.93 97.0042 36.97C98.6309 39.29 100.738 40.45 103.324 40.45C104.844 40.45 106.058 39.9967 106.964 39.09C107.871 38.1833 108.324 36.97 108.324 35.45C108.324 34.57 108.058 33.7833 107.524 33.09C107.018 32.3967 106.378 31.7833 105.604 31.25C104.831 30.7167 103.751 30.05 102.364 29.25C100.604 28.2633 99.1776 27.37 98.0842 26.57C96.9909 25.77 96.0576 24.77 95.2842 23.57C94.5109 22.3433 94.1242 20.9033 94.1242 19.25C94.1242 17.9433 94.4842 16.77 95.2042 15.73C95.9509 14.6633 97.0576 13.8233 98.5242 13.21C99.9909 12.57 101.791 12.25 103.924 12.25C105.471 12.25 107.018 12.69 108.564 13.57C109.151 13.89 109.738 14.3167 110.324 14.85C110.778 14.1567 111.244 13.61 111.724 13.21C112.204 12.8633 112.471 12.6767 112.524 12.65H113.524V20.25H111.924C111.578 18.97 111.058 17.81 110.364 16.77C109.724 15.7567 108.924 14.9167 107.964 14.25C107.031 13.5833 105.951 13.25 104.724 13.25C103.684 13.25 102.791 13.6633 102.044 14.49C101.298 15.3167 100.924 16.37 100.924 17.65C100.924 18.6367 101.204 19.53 101.764 20.33C102.351 21.1033 103.058 21.7833 103.884 22.37C104.738 22.9567 105.884 23.6633 107.324 24.49C109.004 25.45 110.364 26.3033 111.404 27.05C112.444 27.7967 113.324 28.73 114.044 29.85C114.764 30.9433 115.124 32.21 115.124 33.65C115.124 35.09 114.711 36.41 113.884 37.61C113.058 38.7833 111.818 39.7167 110.164 40.41C108.511 41.1033 106.498 41.45 104.124 41.45ZM118.113 40.85V40.25L120.513 39.65V14.05L118.113 13.45V12.85H129.513V13.45L127.113 14.05V26.45H135.713V14.05L133.313 13.45V12.85H144.713V13.45L142.313 14.05V39.65L144.713 40.25V40.85H133.313V40.25L135.713 39.65V27.45H127.113V39.65L129.513 40.25V40.85H118.113ZM148.309 40.25L150.709 39.65V14.05L148.309 13.45V12.85H158.909C163.442 12.85 166.709 13.5433 168.709 14.93C170.709 16.29 171.709 18.1967 171.709 20.65C171.709 22.3033 171.269 23.65 170.389 24.69C169.509 25.7033 168.375 26.4633 166.989 26.97C165.522 27.53 163.962 27.8233 162.309 27.85V28.05C163.295 28.1033 164.162 28.25 164.909 28.49C166.775 29.0767 168.042 30.13 168.709 31.65L172.309 39.65L174.309 40.25V40.85H168.709C166.522 40.85 164.922 39.7167 163.909 37.45L159.909 28.45H157.309V39.65L160.109 40.25V40.85H148.309V40.25ZM158.909 27.45C160.775 27.45 162.242 26.8633 163.309 25.69C164.375 24.5167 164.909 22.8367 164.909 20.65C164.909 18.4633 164.375 16.7833 163.309 15.61C162.242 14.4367 160.775 13.85 158.909 13.85H157.309V27.45H158.909ZM176.316 40.25L178.716 39.65V14.05L176.316 13.45V12.85H197.716V20.05H196.516C196.01 19.65 195.57 19.1433 195.196 18.53C194.343 17.09 193.916 15.53 193.916 13.85H185.316V26.45H189.916C190.103 25.4367 190.45 24.49 190.956 23.61C191.17 23.21 191.423 22.8233 191.716 22.45H192.916V31.45H191.716C191.423 31.0767 191.17 30.69 190.956 30.29C190.45 29.41 190.103 28.4633 189.916 27.45H185.316V39.85H194.716C194.716 38.17 195.143 36.61 195.996 35.17C196.37 34.5567 196.81 34.05 197.316 33.65H198.516V40.85H176.316V40.25ZM202.098 40.25L204.498 39.65V14.05L202.098 13.45V12.85H223.498V20.05H222.298C221.791 19.65 221.351 19.1433 220.978 18.53C220.124 17.09 219.698 15.53 219.698 13.85H211.098V26.45H215.698C215.884 25.4367 216.231 24.49 216.738 23.61C216.951 23.21 217.204 22.8233 217.498 22.45H218.698V31.45H217.498C217.204 31.0767 216.951 30.69 216.738 30.29C216.231 29.41 215.884 28.4633 215.698 27.45H211.098V39.85H220.498C220.498 38.17 220.924 36.61 221.778 35.17C222.151 34.5567 222.591 34.05 223.098 33.65H224.298V40.85H202.098V40.25ZM227.879 40.25L230.279 39.65V14.05L227.879 13.45V12.85H238.479C243.012 12.85 246.279 13.5433 248.279 14.93C250.279 16.29 251.279 18.1967 251.279 20.65C251.279 22.3033 250.839 23.65 249.959 24.69C249.079 25.7033 247.946 26.4633 246.559 26.97C245.092 27.53 243.532 27.8233 241.879 27.85V28.05C242.866 28.1033 243.732 28.25 244.479 28.49C246.346 29.0767 247.612 30.13 248.279 31.65L251.879 39.65L253.879 40.25V40.85H248.279C246.092 40.85 244.492 39.7167 243.479 37.45L239.479 28.45H236.879V39.65L239.679 40.25V40.85H227.879V40.25ZM238.479 27.45C240.346 27.45 241.812 26.8633 242.879 25.69C243.946 24.5167 244.479 22.8367 244.479 20.65C244.479 18.4633 243.946 16.7833 242.879 15.61C241.812 14.4367 240.346 13.85 238.479 13.85H236.879V27.45H238.479ZM253.087 40.25L256.287 39.05L267.287 12.45H268.487L279.887 39.65L281.887 40.25V40.85H277.087C275.7 40.85 274.567 40.5433 273.687 39.93C272.807 39.29 272.153 38.4633 271.727 37.45L269.687 32.65H260.127L257.487 39.05L260.487 40.25V40.85H253.087V40.25ZM260.527 31.65H269.287L264.887 21.13L260.527 31.65ZM280.274 40.25L283.474 39.05L294.474 12.45H295.674L307.074 39.65L309.074 40.25V40.85H304.274C302.888 40.85 301.754 40.5433 300.874 39.93C299.994 39.29 299.341 38.4633 298.914 37.45L296.874 32.65H287.314L284.674 39.05L287.674 40.25V40.85H280.274V40.25ZM287.714 31.65H296.474L292.074 21.13L287.714 31.65ZM313.862 17.85V39.05L317.062 40.25V40.85H309.462V40.25L312.662 39.05V14.05L310.262 13.45V12.85H315.262C316.648 12.85 317.742 13.1433 318.542 13.73C319.368 14.29 320.075 15.13 320.662 16.25L329.382 32.93L336.062 16.25C336.515 15.0767 337.128 14.2233 337.902 13.69C338.675 13.13 339.862 12.85 341.462 12.85H345.662V13.45L343.262 14.05V39.65L345.662 40.25V40.85H334.262V40.25L336.662 39.65V17.85L327.262 41.25H326.062L313.862 17.85Z" fill="#1A535C"/>
</svg>
